<?xml version="1.0" encoding="UTF-8" standalone="no"?>
<svg
   xmlns:osb="http://www.openswatchbook.org/uri/2009/osb"
   xmlns:dc="http://purl.org/dc/elements/1.1/"
   xmlns:cc="http://creativecommons.org/ns#"
   xmlns:rdf="http://www.w3.org/1999/02/22-rdf-syntax-ns#"
   xmlns:svg="http://www.w3.org/2000/svg"
   xmlns="http://www.w3.org/2000/svg"
   xmlns:xlink="http://www.w3.org/1999/xlink"
   xmlns:sodipodi="http://sodipodi.sourceforge.net/DTD/sodipodi-0.dtd"
   xmlns:inkscape="http://www.inkscape.org/namespaces/inkscape"
   version="1.1"
   id="svg10"
   width="920"
   height="1229"
   viewBox="0 0 920 1229"
   sodipodi:docname="logo_letras.svg"
   inkscape:version="1.0.2 (e86c870879, 2021-01-15, custom)">
  <metadata
     id="metadata16">
    <rdf:RDF>
      <cc:Work
         rdf:about="">
        <dc:format>image/svg+xml</dc:format>
        <dc:type
           rdf:resource="http://purl.org/dc/dcmitype/StillImage" />
        <dc:title />
      </cc:Work>
    </rdf:RDF>
  </metadata>
  <defs
     id="defs14">
    <linearGradient
       inkscape:collect="always"
       id="linearGradient853">
      <stop
         style="stop-color:#ff7f2a;stop-opacity:1;"
         offset="0"
         id="stop849" />
      <stop
         style="stop-color:#ff7f2a;stop-opacity:0;"
         offset="1"
         id="stop851" />
    </linearGradient>
    <linearGradient
       id="linearGradient895"
       osb:paint="gradient">
      <stop
         style="stop-color:#ff6600;stop-opacity:1;"
         offset="0"
         id="stop891" />
      <stop
         style="stop-color:#ff6600;stop-opacity:0;"
         offset="1"
         id="stop893" />
    </linearGradient>
    <linearGradient
       id="linearGradient885"
       osb:paint="solid">
      <stop
         style="stop-color:#ff6600;stop-opacity:1;"
         offset="0"
         id="stop883" />
    </linearGradient>
    <linearGradient
       id="linearGradient879"
       osb:paint="solid">
      <stop
         style="stop-color:#000000;stop-opacity:1;"
         offset="0"
         id="stop877" />
    </linearGradient>
    <linearGradient
       inkscape:collect="always"
       xlink:href="#linearGradient853"
       id="linearGradient855"
       x1="900.78084"
       y1="173.10472"
       x2="1100.4409"
       y2="173.10472"
       gradientUnits="userSpaceOnUse"
       gradientTransform="translate(-10.422025,65.269171)" />
  </defs>
  <sodipodi:namedview
     pagecolor="#ffffff"
     bordercolor="#666666"
     borderopacity="1"
     objecttolerance="10"
     gridtolerance="10"
     guidetolerance="10"
     inkscape:pageopacity="0"
     inkscape:pageshadow="2"
     inkscape:window-width="1920"
     inkscape:window-height="1017"
     id="namedview12"
     showgrid="false"
     inkscape:object-nodes="false"
     inkscape:zoom="0.97809726"
     inkscape:cx="513.4814"
     inkscape:cy="654.15976"
     inkscape:window-x="-8"
     inkscape:window-y="-8"
     inkscape:window-maximized="1"
     inkscape:current-layer="g18"
     inkscape:document-rotation="0" />
  <g
     inkscape:groupmode="layer"
     inkscape:label="Image"
     id="g18">
    <text
       xml:space="preserve"
       style="font-style:normal;font-weight:normal;font-size:346.273px;line-height:1.25;font-family:sans-serif;fill:#ff7f2a;fill-opacity:1;stroke:none;stroke-width:3.67248;stroke-miterlimit:4;stroke-dasharray:none"
       x="583.18842"
       y="618.17462"
       id="text847"
       transform="matrix(0.82699088,0.06295824,0.01892819,1.2106442,0,0)"><tspan
         sodipodi:role="line"
         id="tspan845"
         x="583.18842"
         y="618.17462"
         style="font-style:normal;font-variant:normal;font-weight:normal;font-stretch:normal;font-family:'Segoe UI';-inkscape-font-specification:'Segoe UI';fill:#ff7f2a;fill-opacity:1;stroke:#000000;stroke-width:3.67248;stroke-miterlimit:4;stroke-dasharray:none;stroke-opacity:1">D</tspan></text>
    <path
       style="fill:#000000;stroke-width:0.269052"
       d="m 456.61269,825.11657 c -11.39984,-0.43136 -22.67937,-3.62878 -32.35216,-9.17071 -4.07966,-2.33742 -7.02402,-4.44109 -10.66927,-7.62289 -7.39985,-6.45913 -12.01934,-13.1189 -14.72894,-21.23426 -5.28112,-15.81725 -5.73461,-30.6148 -1.32354,-43.19729 5.13115,-14.6376 16.27871,-24.39349 32.14647,-28.13325 4.03892,-0.95188 11.93871,-1.63143 16.67865,-1.43469 13.55801,0.56277 28.63735,4.59544 44.39757,11.87328 2.33305,1.07738 4.26378,1.91661 4.29048,1.86496 0.0268,-0.0516 0.0335,-2.97571 0.0151,-6.49796 -0.0184,-3.5222 -0.0583,-12.10659 -0.0888,-19.0764 -0.0756,-17.29316 -0.12158,-24.62043 -0.25126,-40.05704 -0.0611,-7.26803 -0.12113,-14.99271 -0.13353,-17.16594 -0.0124,-2.17322 -0.11069,-12.77846 -0.21846,-23.5672 -0.65275,-65.34725 -0.85698,-92.35092 -0.94393,-124.79498 -0.0117,-4.34716 -0.005,-7.9215 0.0153,-7.94299 0.13738,-0.14714 28.78421,3.23652 28.98336,3.42348 0.13824,0.12982 1.79788,3.3814 3.68788,7.22583 8.78651,17.87159 15.25159,29.86467 20.81007,38.60415 5.92925,9.32235 8.20617,11.86033 18.43848,20.55255 10.87023,9.23413 18.3649,16.91536 25.59001,26.22704 24.60635,31.71247 35.93626,63.00593 33.67428,93.009 -1.80163,23.89696 -12.93733,46.68447 -30.13423,61.66525 -4.09712,3.56909 -12.56304,9.31045 -13.08201,8.87182 -0.0944,-0.0798 0.6222,-4.03661 1.59253,-8.79286 4.21506,-20.6609 5.12034,-25.78801 6.04317,-34.22624 2.46559,-22.54511 -0.98216,-41.31824 -10.93171,-59.52349 -10.28917,-18.82663 -27.82124,-37.82776 -53.05595,-57.50155 -4.0638,-3.16827 -5.12678,-3.88381 -5.21334,-3.50936 -0.0598,0.2587 -0.0511,2.30727 0.0193,4.55236 0.4541,14.48615 1.12558,63.23048 1.31683,95.60822 0.016,2.69779 0.0906,10.97367 0.16583,18.39087 0.0752,7.41719 0.14661,14.8346 0.15858,16.48311 0.12037,16.58565 0.47807,39.17365 0.9594,60.5842 0.15029,6.68252 0.4997,5.56013 -3.35876,10.78676 -12.73235,17.247 -29.63675,28.74371 -47.69489,32.4374 -2.85827,0.58462 -12.11434,1.39062 -14.80215,1.28886 z"
       id="path22" />
    <text
       xml:space="preserve"
       style="font-style:normal;font-variant:normal;font-weight:normal;font-stretch:normal;font-size:350.749px;line-height:1.25;font-family:'Segoe UI';-inkscape-font-specification:'Segoe UI';fill:#ff7f2a;fill-opacity:1;stroke:none;stroke-width:3.71995;stroke-miterlimit:4;stroke-dasharray:none"
       x="309.28207"
       y="618.63159"
       id="text847-4"
       transform="matrix(0.8317608,0.0706646,0.01169773,1.2032625,0,0)"><tspan
         sodipodi:role="line"
         id="tspan845-2"
         x="309.28207"
         y="618.63159"
         style="font-style:normal;font-variant:normal;font-weight:normal;font-stretch:normal;font-family:'Segoe UI';-inkscape-font-specification:'Segoe UI';fill:#ff7f2a;fill-opacity:1;stroke:#000000;stroke-width:3.71995;stroke-miterlimit:4;stroke-dasharray:none;stroke-opacity:1">M</tspan></text>
  </g>
</svg>
