<?xml version="1.0" encoding="UTF-8" standalone="no"?>
<svg
   xmlns:osb="http://www.openswatchbook.org/uri/2009/osb"
   xmlns:dc="http://purl.org/dc/elements/1.1/"
   xmlns:cc="http://creativecommons.org/ns#"
   xmlns:rdf="http://www.w3.org/1999/02/22-rdf-syntax-ns#"
   xmlns:svg="http://www.w3.org/2000/svg"
   xmlns="http://www.w3.org/2000/svg"
   xmlns:sodipodi="http://sodipodi.sourceforge.net/DTD/sodipodi-0.dtd"
   xmlns:inkscape="http://www.inkscape.org/namespaces/inkscape"
   version="1.1"
   id="svg10"
   width="920"
   height="1229"
   viewBox="0 0 920 1229"
   sodipodi:docname="logo musical.svg"
   inkscape:version="1.0.2 (e86c870879, 2021-01-15, custom)">
  <metadata
     id="metadata16">
    <rdf:RDF>
      <cc:Work
         rdf:about="">
        <dc:format>image/svg+xml</dc:format>
        <dc:type
           rdf:resource="http://purl.org/dc/dcmitype/StillImage" />
        <dc:title></dc:title>
      </cc:Work>
    </rdf:RDF>
  </metadata>
  <defs
     id="defs14">
    <linearGradient
       inkscape:collect="always"
       id="linearGradient895"
       osb:paint="gradient">
      <stop
         style="stop-color:#ff6600;stop-opacity:1;"
         offset="0"
         id="stop891" />
      <stop
         style="stop-color:#ff6600;stop-opacity:0;"
         offset="1"
         id="stop893" />
    </linearGradient>
    <linearGradient
       id="linearGradient885"
       osb:paint="solid">
      <stop
         style="stop-color:#ff6600;stop-opacity:1;"
         offset="0"
         id="stop883" />
    </linearGradient>
    <linearGradient
       id="linearGradient879"
       osb:paint="solid">
      <stop
         style="stop-color:#000000;stop-opacity:1;"
         offset="0"
         id="stop877" />
    </linearGradient>
    <filter
       inkscape:collect="always"
       style="color-interpolation-filters:sRGB"
       id="filter1492"
       x="-0.040533637"
       width="1.0810673"
       y="-0.046517721"
       height="1.0930354">
      <feGaussianBlur
         inkscape:collect="always"
         stdDeviation="4.2225564"
         id="feGaussianBlur1494" />
    </filter>
    <filter
       inkscape:collect="always"
       style="color-interpolation-filters:sRGB"
       id="filter1600"
       x="-0.011696272"
       width="1.0233925"
       y="-0.012319923"
       height="1.0246398">
      <feGaussianBlur
         inkscape:collect="always"
         stdDeviation="1.533251"
         id="feGaussianBlur1602" />
    </filter>
  </defs>
  <sodipodi:namedview
     pagecolor="#ffffff"
     bordercolor="#666666"
     borderopacity="1"
     objecttolerance="10"
     gridtolerance="10"
     guidetolerance="10"
     inkscape:pageopacity="0"
     inkscape:pageshadow="2"
     inkscape:window-width="1920"
     inkscape:window-height="1017"
     id="namedview12"
     showgrid="false"
     inkscape:object-nodes="false"
     inkscape:zoom="0.97809726"
     inkscape:cx="513.4814"
     inkscape:cy="654.15976"
     inkscape:window-x="-8"
     inkscape:window-y="-8"
     inkscape:window-maximized="1"
     inkscape:current-layer="g18" />
  <g
     inkscape:groupmode="layer"
     inkscape:label="Image"
     id="g18">
    <path
       style="fill:#333333;fill-opacity:1;stroke:none;stroke-width:6.4226;stroke-linecap:butt;stroke-linejoin:miter;stroke-miterlimit:4;stroke-dasharray:12.8453, 38.5357;stroke-dashoffset:0;stroke-opacity:1;filter:url(#filter1492)"
       d="m 464.70109,765.01847 c 0,0 -175.52238,-118.2732 -114.91014,-191.82303 60.61224,-73.54982 237.28815,32.11427 237.28815,32.11427"
       id="path855-0-7"
       sodipodi:nodetypes="czc" />
    <path
       style="fill:#ff6600;fill-opacity:1;stroke:none;stroke-width:6.67616;stroke-linecap:butt;stroke-linejoin:miter;stroke-miterlimit:4;stroke-dasharray:0, 73.43779999999999575;stroke-dashoffset:0;stroke-opacity:1;opacity:1"
       d="m 482.89285,745.03649 c 0,0 -179.8947,-126.60389 -115.78057,-202.07447 64.11412,-75.47056 245.42419,38.01755 245.42419,38.01755"
       id="path855-0"
       sodipodi:nodetypes="czc" />
    <path
       style="fill:#333333;stroke-width:0.296959;filter:url(#filter1600)"
       d="m 378.93713,796.41781 c -11.40146,-6.083 -21.11175,-14.63838 -27.85133,-24.53854 -2.84251,-4.17557 -4.65774,-7.57068 -6.57773,-12.30255 -3.89753,-9.60579 -4.84089,-18.00797 -3.00784,-26.78984 3.57275,-17.11629 11.49922,-30.89022 23.13946,-40.20895 13.54105,-10.84098 30.46065,-14.21063 48.79142,-9.71711 4.66585,1.14378 13.12152,4.46331 17.85228,7.00848 13.53175,7.28014 26.65034,18.49619 38.62459,33.02302 1.77261,2.15047 3.26922,3.88218 3.32578,3.8482 0.0566,-0.0339 1.72137,-2.70764 3.6996,-5.94153 1.97818,-3.23389 6.80448,-11.1131 10.72501,-17.50941 9.72746,-15.87019 13.83485,-22.6015 22.45446,-36.79893 4.05833,-6.68461 8.37668,-13.78677 9.59616,-15.78261 1.2195,-1.99584 7.13193,-11.75434 13.13873,-21.68556 36.38309,-60.15329 51.48473,-84.97796 69.79073,-114.72497 2.45277,-3.98579 4.48637,-7.25477 4.51904,-7.26445 0.22378,-0.0662 27.57084,17.32534 27.66829,17.59587 0.0676,0.18783 -0.0805,3.99285 -0.32931,8.45561 -1.15639,20.74614 -1.35141,34.95203 -0.62791,45.72678 0.7718,11.49339 1.65893,14.95309 7.184,28.01662 5.86951,13.87797 9.17099,24.64994 11.2727,36.78013 7.15772,41.31142 0.98987,75.61481 -18.33181,101.95498 -15.38941,20.97953 -39.68544,36.28598 -65.74739,41.4208 -6.20917,1.22333 -18.1131,2.25557 -18.39459,1.59504 -0.0512,-0.12011 2.92428,-3.38519 6.61221,-7.25554 16.02021,-16.81259 19.85196,-21.05494 25.57894,-28.31996 15.30126,-19.41057 22.42284,-38.31828 22.58026,-59.95024 0.16276,-22.3703 -6.97487,-48.51427 -21.6001,-79.1174 -2.35525,-4.92835 -3.03549,-6.11383 -3.33622,-5.81419 -0.20781,0.20699 -1.36039,2.08687 -2.56138,4.17745 -7.7493,13.48912 -34.69991,58.45123 -52.86174,88.18956 -1.51326,2.47788 -6.12923,10.09194 -10.25768,16.92019 -4.12845,6.82823 -8.261,13.65473 -9.18343,15.16997 -9.28059,15.24477 -21.72189,36.10331 -33.36932,55.94555 -3.63524,6.19306 -2.64193,5.33982 -9.54707,8.19976 -22.78585,9.43726 -46.57361,11.52825 -67.11596,5.89965 -3.25146,-0.89092 -13.1644,-4.77141 -15.85256,-6.2057 z"
       id="path22-1" />
    <path
       style="fill:#000000;stroke-width:0.296959"
       d="m 395.68864,791.15411 c -11.40146,-6.083 -21.11175,-14.63838 -27.85133,-24.53854 -2.84251,-4.17557 -4.65774,-7.57068 -6.57773,-12.30255 -3.89753,-9.60579 -4.84089,-18.00797 -3.00784,-26.78984 3.57275,-17.11629 11.49922,-30.89022 23.13946,-40.20895 13.54105,-10.84098 30.46065,-14.21063 48.79142,-9.71711 4.66585,1.14378 13.12152,4.46331 17.85228,7.00848 13.53175,7.28014 26.65034,18.49619 38.62459,33.02302 1.77261,2.15047 3.26922,3.88218 3.32578,3.8482 0.0566,-0.0339 1.72137,-2.70764 3.6996,-5.94153 1.97818,-3.23389 6.80448,-11.1131 10.72501,-17.50941 9.72746,-15.87019 13.83485,-22.6015 22.45446,-36.79893 4.05833,-6.68461 8.37668,-13.78677 9.59616,-15.78261 1.2195,-1.99584 7.13193,-11.75434 13.13873,-21.68556 36.38309,-60.15329 51.48473,-84.97796 69.79073,-114.72497 2.45277,-3.98579 4.48637,-7.25477 4.51904,-7.26445 0.22378,-0.0662 27.57084,17.32534 27.66829,17.59587 0.0676,0.18783 -0.0805,3.99285 -0.32931,8.45561 -1.15639,20.74614 -1.35141,34.95203 -0.62791,45.72678 0.7718,11.49339 1.65893,14.95309 7.184,28.01662 5.86951,13.87797 9.17099,24.64994 11.2727,36.78013 7.15772,41.31142 0.98987,75.61481 -18.33181,101.95498 -15.38941,20.97953 -39.68544,36.28598 -65.74739,41.4208 -6.20917,1.22333 -18.1131,2.25557 -18.39459,1.59504 -0.0512,-0.12011 2.92428,-3.38519 6.61221,-7.25554 16.02021,-16.81259 19.85196,-21.05494 25.57894,-28.31996 15.30126,-19.41057 22.42284,-38.31828 22.58026,-59.95024 0.16276,-22.3703 -6.97487,-48.51427 -21.6001,-79.1174 -2.35525,-4.92835 -3.03549,-6.11383 -3.33622,-5.81419 -0.20781,0.20699 -1.36039,2.08687 -2.56138,4.17745 -7.7493,13.48912 -34.69991,58.45123 -52.86174,88.18956 -1.51326,2.47788 -6.12923,10.09194 -10.25768,16.92019 -4.12845,6.82823 -8.261,13.65473 -9.18343,15.16997 -9.28059,15.24477 -21.72189,36.10331 -33.36932,55.94555 -3.63524,6.19306 -2.64193,5.33982 -9.54707,8.19976 -22.78585,9.43726 -46.57361,11.52825 -67.11596,5.89965 -3.25146,-0.89092 -13.1644,-4.77141 -15.85256,-6.2057 z"
       id="path22" />
  </g>
</svg>
